<svg xmlns="http://www.w3.org/2000/svg" width="59.019" height="59.005" viewBox="0 0 59.019 59.005">
  <path id="Icon_awesome-instagram" data-name="Icon awesome-instagram" d="M29.511,16.612A15.128,15.128,0,1,0,44.639,31.74,15.1,15.1,0,0,0,29.511,16.612Zm0,24.964a9.835,9.835,0,1,1,9.835-9.835,9.853,9.853,0,0,1-9.835,9.835ZM48.786,15.993a3.529,3.529,0,1,1-3.529-3.529A3.52,3.52,0,0,1,48.786,15.993Zm10.02,3.581c-.224-4.727-1.3-8.914-4.766-12.363S46.4,2.682,41.676,2.445c-4.872-.276-19.473-.276-24.345,0-4.714.224-8.9,1.3-12.363,4.753S.439,14.835.2,19.561c-.276,4.872-.276,19.473,0,24.345.224,4.727,1.3,8.914,4.766,12.363S12.6,60.8,17.332,61.036c4.872.276,19.473.276,24.345,0,4.727-.224,8.914-1.3,12.363-4.766s4.529-7.637,4.766-12.363c.276-4.872.276-19.46,0-24.332ZM52.512,49.133A9.957,9.957,0,0,1,46.9,54.742c-3.884,1.54-13.1,1.185-17.393,1.185s-13.522.342-17.393-1.185a9.957,9.957,0,0,1-5.609-5.609c-1.54-3.884-1.185-13.1-1.185-17.393S4.982,18.218,6.509,14.348a9.957,9.957,0,0,1,5.609-5.609C16,7.2,25.218,7.554,29.511,7.554S43.033,7.211,46.9,8.739a9.957,9.957,0,0,1,5.609,5.609c1.54,3.884,1.185,13.1,1.185,17.393S54.053,45.262,52.512,49.133Z" transform="translate(0.005 -2.238)" fill="#aa7053"/>
</svg>
