<svg xmlns="http://www.w3.org/2000/svg" width="72.732" height="59.071" viewBox="0 0 72.732 59.071">
  <path id="Icon_awesome-twitter" data-name="Icon awesome-twitter" d="M65.256,18.1c.046.646.046,1.292.046,1.938,0,19.706-15,42.411-42.411,42.411A42.124,42.124,0,0,1,0,55.761a30.837,30.837,0,0,0,3.6.185,29.853,29.853,0,0,0,18.506-6.369A14.933,14.933,0,0,1,8.168,39.239a18.8,18.8,0,0,0,2.815.231,15.765,15.765,0,0,0,3.923-.508A14.908,14.908,0,0,1,2.953,24.333v-.185A15.012,15.012,0,0,0,9.691,26.04,14.929,14.929,0,0,1,5.076,6.1,42.371,42.371,0,0,0,35.812,21.7a16.828,16.828,0,0,1-.369-3.415,14.921,14.921,0,0,1,25.8-10.2,29.348,29.348,0,0,0,9.461-3.6A14.866,14.866,0,0,1,64.148,12.7,29.883,29.883,0,0,0,72.732,10.4,32.043,32.043,0,0,1,65.256,18.1Z" transform="translate(0 -3.381)" fill="#aa7053"/>
</svg>
